<svg id="Capa_1" data-name="Capa 1" xmlns="http://www.w3.org/2000/svg" viewBox="0 0 346.01 106"><defs><style>.cls-1{fill:#fff;}</style></defs><title>Sin título-1</title><polygon id="_Trazado_" data-name="&lt;Trazado&gt;" class="cls-1" points="0.8 86.4 0 88.5 318.4 88.5 319.2 86.4 0.8 86.4"/><path id="_Trazado_compuesto_" data-name="&lt;Trazado compuesto&gt;" class="cls-1" d="M30.6,106.4l-.9,2.9H26.8l3.7-11.2h3.7L38,109.3H35l-.9-2.9Zm3.1-1.9-.8-2.4c-.2-.7-.4-1.5-.6-2.2h0c-.2.7-.4,1.5-.6,2.2l-.7,2.4Z" transform="translate(-3.5 -3.5)"/><path id="_Trazado_2" data-name="&lt;Trazado&gt;" class="cls-1" d="M51.6,109a9.31,9.31,0,0,1-3.1.5c-4.3,0-6.4-2.4-6.4-5.6,0-3.8,3-5.9,6.7-5.9a6.74,6.74,0,0,1,3,.5l-.6,2a6.34,6.34,0,0,0-2.3-.4c-2.2,0-3.9,1.2-3.9,3.7a3.57,3.57,0,0,0,3.9,3.7,5,5,0,0,0,2.3-.4Z" transform="translate(-3.5 -3.5)"/><path id="_Trazado_compuesto_2" data-name="&lt;Trazado compuesto&gt;" class="cls-1" d="M59.8,106.4l-.9,2.9H56l3.7-11.2h3.7l3.8,11.2h-3l-1-2.9Zm3.2-1.9-.8-2.4c-.2-.7-.4-1.5-.6-2.2h0c-.2.7-.4,1.5-.6,2.2l-.7,2.4Z" transform="translate(-3.5 -3.5)"/><path id="_Trazado_compuesto_3" data-name="&lt;Trazado compuesto&gt;" class="cls-1" d="M72.3,98.3a21.17,21.17,0,0,1,3.7-.2,8.72,8.72,0,0,1,5.1,1.2,4.74,4.74,0,0,1,2.1,4.2,5.65,5.65,0,0,1-2,4.5c-1.3,1-3.3,1.4-5.7,1.4a23.29,23.29,0,0,1-3.2-.2Zm2.7,9.1a2.79,2.79,0,0,0,1,.1c2.5,0,4.2-1.2,4.2-3.9,0-2.3-1.5-3.6-3.9-3.6-.6,0-1,.1-1.3.1Z" transform="translate(-3.5 -3.5)"/><polygon id="_Trazado_3" data-name="&lt;Trazado&gt;" class="cls-1" points="92.1 101.1 87.6 101.1 87.6 103.7 92.7 103.7 92.7 105.8 84.8 105.8 84.8 94.6 92.4 94.6 92.4 96.7 87.6 96.7 87.6 99 92.1 99 92.1 101.1"/><path id="_Trazado_4" data-name="&lt;Trazado&gt;" class="cls-1" d="M111.8,105c-.1-1.4-.1-3-.1-4.6h0c-.4,1.4-.9,3-1.4,4.3l-1.5,4.4h-2.2l-1.3-4.3c-.4-1.3-.8-2.9-1.1-4.4h0c-.1,1.5-.1,3.2-.2,4.6l-.2,4.3h-2.6l.8-11.2h3.7l1.2,3.7a29.24,29.24,0,0,1,1,4h.1a26.43,26.43,0,0,1,1.2-4l1.3-3.7h3.7l.7,11.2H112Z" transform="translate(-3.5 -3.5)"/><rect id="_Trazado_5" data-name="&lt;Trazado&gt;" class="cls-1" x="116.7" y="94.6" width="2.8" height="11.2"/><path id="_Trazado_compuesto_4" data-name="&lt;Trazado compuesto&gt;" class="cls-1" d="M131.5,106.4l-.9,2.9h-2.9l3.7-11.2h3.7l3.8,11.2h-3l-1-2.9Zm3.2-1.9-.8-2.4c-.2-.7-.4-1.5-.6-2.2h0c-.2.7-.4,1.5-.6,2.2l-.7,2.4Z" transform="translate(-3.5 -3.5)"/><path id="_Trazado_compuesto_5" data-name="&lt;Trazado compuesto&gt;" class="cls-1" d="M151,98.3a21.17,21.17,0,0,1,3.7-.2,8.72,8.72,0,0,1,5.1,1.2,4.74,4.74,0,0,1,2.1,4.2,5.65,5.65,0,0,1-2,4.5c-1.3,1-3.3,1.4-5.7,1.4a23.29,23.29,0,0,1-3.2-.2V98.3Zm2.7,9.1a2.79,2.79,0,0,0,1,.1c2.5,0,4.2-1.2,4.2-3.9,0-2.3-1.5-3.6-3.9-3.6-.6,0-1,.1-1.3.1Z" transform="translate(-3.5 -3.5)"/><polygon id="_Trazado_6" data-name="&lt;Trazado&gt;" class="cls-1" points="170.8 101.1 166.3 101.1 166.3 103.7 171.4 103.7 171.4 105.8 163.5 105.8 163.5 94.6 171.1 94.6 171.1 96.7 166.3 96.7 166.3 99 170.8 99 170.8 101.1"/><path id="_Trazado_7" data-name="&lt;Trazado&gt;" class="cls-1" d="M187.2,106.7a8.35,8.35,0,0,0,3.1.7c1.3,0,2-.5,2-1.2s-.6-1.1-2.1-1.6c-2-.7-3.4-1.7-3.4-3.3,0-1.9,1.8-3.4,4.7-3.4a6.29,6.29,0,0,1,3.1.6l-.6,2a6.94,6.94,0,0,0-2.6-.5c-1.2,0-1.8.5-1.8,1.1s.7,1,2.3,1.6c2.2.7,3.2,1.8,3.2,3.3,0,1.9-1.6,3.5-5,3.5a9.76,9.76,0,0,1-3.5-.7Z" transform="translate(-3.5 -3.5)"/><path id="_Trazado_compuesto_6" data-name="&lt;Trazado compuesto&gt;" class="cls-1" d="M211.5,103.6c0,3.7-2.4,5.9-6.1,5.9a5.49,5.49,0,0,1-5.8-5.7,5.7,5.7,0,0,1,6-5.9c3.9,0,5.9,2.6,5.9,5.7m-8.9.1c0,2.2,1.1,3.8,3,3.8s3-1.6,3-3.8c0-2-1-3.8-3-3.8s-3,1.7-3,3.8" transform="translate(-3.5 -3.5)"/><polygon id="_Trazado_8" data-name="&lt;Trazado&gt;" class="cls-1" points="213.2 94.6 220.7 94.6 220.7 96.7 216 96.7 216 99.3 220.4 99.3 220.4 101.3 216 101.3 216 105.8 213.2 105.8 213.2 94.6"/><path id="_Trazado_compuesto_7" data-name="&lt;Trazado compuesto&gt;" class="cls-1" d="M226.3,3.5h-55L142.2,83.6h55c4.6,0,9.6-3.7,11.3-8.3l23.1-63.6c1.6-4.5-.8-8.2-5.3-8.2M202.4,8.6,177,78.4a2.27,2.27,0,0,1-1.9,1.4c-.8,0-1.2-.6-.9-1.4L199.6,8.6a2.27,2.27,0,0,1,1.9-1.4c.8,0,1.2.6.9,1.4" transform="translate(-3.5 -3.5)"/><path id="_Trazado_9" data-name="&lt;Trazado&gt;" class="cls-1" d="M56.5,35.7,40.9,78.4A2.15,2.15,0,0,1,39,79.8c-.8,0-1.2-.6-.9-1.4L63.5,8.6a2.27,2.27,0,0,1,1.9-1.4c.8,0,1.2.6.9,1.4L57.5,32.8H87.7l7.7-21.1c1.7-4.5-.7-8.2-5.2-8.2H43.4c-4.6,0-9.6,3.7-11.3,8.3L9,75.3c-1.7,4.6.7,8.3,5.2,8.3H61c4.6,0,9.6-3.7,11.3-8.3L86.7,35.6Z" transform="translate(-3.5 -3.5)"/><path id="_Trazado_compuesto_8" data-name="&lt;Trazado compuesto&gt;" class="cls-1" d="M158.2,3.8H103.1l-10.5,29h30.3l8.7-23.9a2.27,2.27,0,0,1,1.9-1.4c.8,0,1.2.6.9,1.4l-9.7,26.7H91.5L77,75.6c-1.7,4.6.7,8.2,5.2,8.2h55L163.4,12c1.7-4.5-.6-8.2-5.2-8.2M109,78.8a2.15,2.15,0,0,1-1.9,1.4c-.8,0-1.2-.6-.9-1.4l14.6-40.3h2.8Z" transform="translate(-3.5 -3.5)"/><polygon id="_Trazado_10" data-name="&lt;Trazado&gt;" class="cls-1" points="235.9 0 206.8 80.1 237.5 80.1 266.7 0 235.9 0"/><path class="cls-1" d="M343.7,8.9H286c-4.6,0-9.6,3.7-11.3,8.3L254.1,73.7c-1.7,4.6.7,8.3,5.3,8.3h57.7c4.6,0,9.6-3.7,11.3-8.3L349,17.2C350.6,12.6,348.3,8.9,343.7,8.9ZM305.2,35.8h-16l-2.6,7h15.2l-2.1,5.7H284.5L280,60.8h-6.9l11.2-30.7h22.9Zm15.7,25h-7.5l8.3-23.2-9.7,6-2.8-4,14-8.4h8.4Z" transform="translate(-3.5 -3.5)"/><polygon id="_Trazado_11" data-name="&lt;Trazado&gt;" class="cls-1" points="228.5 96.7 225.2 96.7 225.2 94.6 234.7 94.6 234.7 96.7 231.3 96.7 231.3 105.8 228.5 105.8 228.5 96.7"/><path id="_Trazado_12" data-name="&lt;Trazado&gt;" class="cls-1" d="M245.4,109.3l-2.9-11.2h3l.9,4.6c.3,1.3.5,2.8.7,3.9h0c.2-1.2.5-2.6.8-4l1-4.6h3l1,4.7c.3,1.3.5,2.5.7,3.8h0c.2-1.3.5-2.6.7-3.9l1-4.6h2.8l-3.2,11.2h-3l-1-4.8c-.2-1.1-.4-2.2-.6-3.5h0c-.2,1.3-.4,2.3-.7,3.5l-1.2,4.8h-3Z" transform="translate(-3.5 -3.5)"/><path id="_Trazado_compuesto_9" data-name="&lt;Trazado compuesto&gt;" class="cls-1" d="M264.9,106.4l-.9,2.9h-2.9l3.8-11.2h3.7l3.8,11.2h-3l-.9-2.9Zm3.1-1.9-.8-2.4c-.2-.7-.4-1.5-.6-2.2h0c-.2.7-.4,1.5-.6,2.2l-.7,2.4Z" transform="translate(-3.5 -3.5)"/><path id="_Trazado_compuesto_10" data-name="&lt;Trazado compuesto&gt;" class="cls-1" d="M277.3,98.3a34.13,34.13,0,0,1,3.7-.2c1.8,0,3.1.2,4,.9a2.62,2.62,0,0,1,1.2,2.4,2.9,2.9,0,0,1-2.2,2.7h0a2.74,2.74,0,0,1,1.6,2.1c.4,1.3.8,2.7,1,3.2h-2.9a9.91,9.91,0,0,1-.8-2.6c-.3-1.4-.9-1.8-2-1.8h-.8v4.4h-2.8V98.3Zm2.8,4.8h1.1c1.4,0,2.2-.6,2.2-1.6s-.8-1.6-2.1-1.6a3.81,3.81,0,0,0-1.3.1v3.1Z" transform="translate(-3.5 -3.5)"/><polygon id="_Trazado_13" data-name="&lt;Trazado&gt;" class="cls-1" points="295.3 101.1 290.8 101.1 290.8 103.7 295.8 103.7 295.8 105.8 288 105.8 288 94.6 295.6 94.6 295.6 96.7 290.8 96.7 290.8 99 295.3 99 295.3 101.1"/></svg>